<svg width="1024" height="1024" viewBox="0 0 140 140" xmlns="http://www.w3.org/2000/svg" role="img">
  <title>True Deal app icon</title>
  <rect width="140" height="140" rx="28" fill="#0D0D14"/>
  <path d="M70 10 L78 4 L86 10 L96 8 L101 17 L111 19 L113 29 L122 34 L120 44 L128 51 L122 60 L128 70 L122 80 L128 89 L120 96 L122 106 L113 111 L111 121 L101 123 L96 132 L86 130 L78 136 L70 130 L62 136 L54 130 L44 132 L39 123 L29 121 L27 111 L18 106 L20 96 L12 89 L18 80 L12 70 L18 60 L12 51 L20 44 L18 34 L27 29 L29 19 L39 17 L44 8 L54 10 L62 4 Z" fill="#16A34A"/>
  <polyline points="43,72 60,89 97,52" stroke="#FFFFFF" stroke-width="7.5" fill="none" stroke-linecap="round" stroke-linejoin="round"/>
  <circle cx="43" cy="72" r="5" fill="#FFFFFF"/>
  <circle cx="97" cy="52" r="5" fill="#FFFFFF"/>
</svg>
